<svg xmlns="http://www.w3.org/2000/svg" width="874" height="681" viewBox="0 0 874 681" version="1.1"><path d="M 408 66.671 C 401.675 76.921, 395.318 87.151, 393.873 89.404 C 392.428 91.657, 385.957 102.050, 379.493 112.500 C 373.029 122.950, 366.562 133.331, 365.120 135.568 C 363.679 137.806, 358.450 146.228, 353.500 154.285 C 348.550 162.343, 344.034 168.949, 343.463 168.967 C 342.893 168.985, 340.747 166.750, 338.694 164 L 334.961 159 306.481 159 C 290.816 159, 278 159.232, 278 159.515 C 278 159.799, 282.837 166.284, 288.750 173.926 C 294.663 181.569, 302.650 191.970, 306.500 197.040 C 310.350 202.110, 318.450 212.696, 324.500 220.564 C 330.550 228.433, 339.325 239.884, 344 246.011 C 348.675 252.139, 356.569 262.405, 361.542 268.826 C 380.976 293.917, 389.999 306.118, 389.984 307.284 C 389.976 307.953, 386.938 312.386, 383.234 317.135 C 379.530 321.885, 370.200 333.973, 362.500 343.997 C 354.800 354.021, 345.800 365.706, 342.500 369.963 C 339.200 374.220, 331.100 384.731, 324.500 393.320 L 312.500 408.937 253 408.975 L 193.500 409.013 191.885 411.756 C 187.977 418.396, 167.507 450.726, 165.854 452.868 C 164.849 454.170, 164.273 455.632, 164.573 456.118 C 165.269 457.244, 674.698 457.298, 675.394 456.172 C 675.675 455.716, 674.855 453.804, 673.571 451.922 C 672.288 450.040, 668.415 444, 664.965 438.500 C 661.516 433, 657.689 426.925, 656.462 425 C 655.236 423.075, 652.550 418.800, 650.495 415.500 C 648.440 412.200, 646.629 409.354, 646.470 409.175 C 646.312 408.996, 619.540 408.899, 586.978 408.960 C 536.891 409.055, 527.598 408.853, 526.636 407.649 C 523.394 403.591, 505.027 379.912, 502 375.888 C 497.279 369.612, 482.855 350.868, 481.308 349 C 474.557 340.845, 450.039 308.247, 450.022 307.403 C 450.010 306.800, 456.321 298.025, 464.048 287.903 C 471.774 277.781, 482.011 264.375, 486.798 258.111 C 491.584 251.847, 498.650 242.594, 502.500 237.547 C 516.656 218.993, 544.747 182.423, 553.250 171.479 C 558.063 165.286, 562 159.944, 562 159.609 C 562 159.274, 549.222 159, 533.605 159 L 505.209 159 491.318 176.750 C 466.410 208.576, 456.701 221.160, 454.203 224.862 C 452.852 226.863, 451.431 228.725, 451.046 229 C 450.660 229.275, 446.592 234.450, 442.004 240.500 C 423.873 264.413, 421.720 267, 419.950 267 C 418.800 267, 413.357 260.774, 404.869 249.750 C 386.651 226.088, 375.889 211.727, 375.315 210.312 C 374.712 208.823, 378.408 202.394, 396.484 173.500 C 404.398 160.850, 412.553 147.688, 414.606 144.250 C 416.873 140.454, 419.014 138, 420.059 138 C 421.155 138, 423.902 141.458, 427.639 147.543 C 430.863 152.792, 437.450 163.480, 442.279 171.293 C 447.107 179.107, 451.567 186.512, 452.189 187.750 C 453.795 190.942, 455.485 190.553, 458.699 186.253 C 462.488 181.185, 475.967 163.712, 481.035 157.299 L 485.145 152.098 476.213 137.799 C 463.701 117.769, 430.273 63.957, 424.940 55.259 C 422.498 51.276, 420.275 48.021, 420 48.025 C 419.725 48.030, 414.325 56.420, 408 66.671 M 301.617 236.250 C 298.635 241.257, 281.738 268.382, 263.462 297.500 C 262.081 299.700, 255.584 310.050, 249.024 320.500 C 242.464 330.950, 233.899 344.675, 229.990 351 C 226.082 357.325, 219.352 368.124, 215.035 374.997 C 210.719 381.870, 207.397 387.833, 207.653 388.247 C 207.909 388.661, 220.424 389, 235.465 389 L 262.813 389 272.010 373.930 C 277.068 365.641, 282.623 356.640, 284.354 353.928 C 286.084 351.215, 288.671 347.084, 290.101 344.748 C 310.622 311.239, 327.353 283.934, 331.307 277.500 C 335.783 270.217, 336.101 269.304, 334.862 267.309 C 331.945 262.617, 306.787 230, 306.084 230 C 305.674 230, 303.664 232.813, 301.617 236.250 M 528.379 236.540 C 525.696 240.137, 519.112 248.733, 513.750 255.641 C 508.387 262.549, 504 268.536, 504 268.945 C 504 269.354, 506.754 274.146, 510.120 279.594 C 533.157 316.881, 572.535 381.198, 573.841 383.672 C 576.705 389.101, 576.117 389, 605.012 389 C 619.791 389, 632.094 388.657, 632.353 388.239 C 632.729 387.630, 621.078 368.155, 609.177 349.500 C 601.772 337.892, 599.162 333.749, 590.272 319.500 C 584.781 310.700, 571.787 289.896, 561.395 273.268 C 551.003 256.640, 540.723 240.103, 538.550 236.518 C 536.378 232.933, 534.298 230, 533.929 230 C 533.560 230, 531.063 232.943, 528.379 236.540 M 412.033 355.691 C 408.503 360.470, 400.864 370.493, 395.057 377.963 C 377.710 400.279, 373 406.664, 373 407.862 C 373 408.697, 385.527 409, 420 409 C 458.291 409, 467 408.755, 467 407.678 C 467 406.952, 464.637 403.375, 461.750 399.730 C 458.863 396.085, 448.625 382.760, 439 370.118 C 429.375 357.476, 420.814 347.103, 419.976 347.066 C 419.138 347.030, 415.563 350.911, 412.033 355.691 M 595.460 481.250 C 595.197 481.938, 595.099 513.100, 595.241 550.500 L 595.500 618.500 607.750 618.781 L 620 619.062 620 549.531 L 620 480 607.969 480 C 599.265 480, 595.805 480.346, 595.460 481.250 M 67 552.009 L 67 619.164 110.750 618.753 C 158.116 618.309, 159.936 618.119, 171.776 612.384 C 181.862 607.497, 186.739 601.653, 189.445 591.213 C 191.415 583.610, 191.409 578.369, 189.423 570.705 C 187.123 561.827, 178.543 551.894, 171.147 549.547 C 168.716 548.775, 168.208 546, 170.497 546 C 173.115 546, 180.229 538.681, 182.647 533.500 C 184.531 529.463, 184.982 526.809, 184.990 519.718 C 185.008 503.471, 178.226 493.905, 162.419 487.881 C 156.659 485.685, 155.297 485.614, 111.750 485.240 L 67 484.854 67 552.009 M 644 486.033 C 644 486.913, 674.235 526.239, 687.676 542.842 C 690.054 545.780, 692 548.850, 692 549.665 C 692 551.070, 686.183 558.820, 665.479 585 C 660.477 591.325, 654.503 598.975, 652.203 602 C 649.904 605.025, 646.224 609.750, 644.025 612.500 C 641.827 615.250, 640.022 617.837, 640.014 618.250 C 640.006 618.663, 646.922 619, 655.382 619 L 670.765 619 689.081 594.500 C 699.641 580.376, 708.055 570.024, 708.949 570.056 C 709.802 570.087, 718.600 581, 728.500 594.306 L 746.500 618.500 762.250 618.775 C 770.913 618.927, 778 618.694, 778 618.257 C 778 617.821, 776.313 615.408, 774.250 612.896 C 772.188 610.385, 766.225 602.821, 761 596.088 C 755.775 589.355, 745.776 576.569, 738.779 567.673 C 731.783 558.778, 726.045 550.815, 726.029 549.978 C 726.001 548.511, 731.945 540.441, 750 517.433 C 754.675 511.476, 760.078 504.554, 762.008 502.051 C 763.937 499.548, 767.424 495.097, 769.758 492.160 C 772.091 489.223, 774 486.411, 774 485.910 C 774 485.404, 767.377 485, 759.076 485 L 744.152 485 742.017 487.750 C 740.842 489.262, 734.310 497.925, 727.500 507 C 710.437 529.740, 711.058 529, 709.031 529 C 707.866 529, 703.505 524.072, 696.864 515.250 C 691.172 507.688, 683.630 497.788, 680.105 493.250 L 673.697 485 658.849 485 C 649.297 485, 644 485.369, 644 486.033 M 92.226 522.155 L 92.500 539.500 118 539.484 C 145.823 539.467, 149.755 538.899, 154.822 534.166 C 158.272 530.944, 160.446 524.189, 159.557 519.453 C 158.666 514.705, 155.042 509.957, 150.500 507.587 C 146.785 505.649, 144.557 505.475, 119.226 505.155 L 91.952 504.810 92.226 522.155 M 256 515.571 C 254.625 515.810, 250.306 516.506, 246.402 517.118 C 236.006 518.748, 225.533 524.198, 220.858 530.410 C 217.343 535.080, 214.541 542.448, 215.617 544.190 C 215.893 544.635, 221.190 545, 227.390 545 C 238.552 545, 238.676 544.974, 240.076 542.358 C 243.722 535.545, 257.665 531.816, 271.700 533.901 C 283.586 535.666, 288.956 540.739, 288.985 550.231 C 288.998 554.325, 288.697 555.030, 286.750 555.471 C 285.512 555.752, 275.500 556.412, 264.500 556.939 C 232.075 558.492, 219.697 563.162, 212.688 576.487 C 209.598 582.362, 209.674 595.779, 212.832 601.795 C 220.248 615.922, 233.050 621.620, 255.467 620.772 C 270.714 620.195, 277.161 618.008, 288.602 609.535 C 290.433 608.179, 291.284 609.386, 291.935 614.269 L 292.500 618.500 304.863 618.782 L 317.226 619.063 316.627 615.282 C 316.298 613.202, 315.746 596.875, 315.401 579 C 314.987 557.598, 314.328 544.746, 313.471 541.364 C 309.245 524.695, 295.352 516.781, 268.190 515.570 C 262.860 515.333, 257.375 515.333, 256 515.571 M 374.199 516.596 C 358.244 519.272, 346.724 527.304, 343.598 537.932 C 341.600 544.722, 341.589 548.252, 343.543 554.833 C 347.552 568.332, 360.332 574.111, 394.500 577.875 C 409.585 579.537, 414.936 582.878, 414.978 590.661 C 414.996 594.064, 414.458 595.278, 412.025 597.325 C 407.234 601.357, 402.468 602.501, 390.500 602.491 C 380.454 602.483, 378.997 602.236, 373.699 599.643 C 369.771 597.720, 367.058 595.534, 365.297 592.872 L 362.695 588.941 350.598 589.220 L 338.500 589.500 338.822 592.500 C 339.742 601.087, 348.697 611.154, 359.448 615.687 C 376.249 622.772, 407.083 622.861, 421.885 615.867 C 434.614 609.853, 440.473 601.026, 440.382 588 C 440.323 579.446, 438.334 574.533, 432.838 569.358 C 426.271 563.176, 413.918 559.007, 396.500 557.096 C 371.917 554.398, 363.963 549.759, 368.154 540.562 C 370.787 534.782, 384.629 531.745, 398.033 534.006 C 404.949 535.172, 405.739 535.577, 410.459 540.376 L 415.500 545.500 426.250 545.216 L 437 544.932 436.978 542.216 C 436.918 534.787, 428.745 524.631, 419.556 520.567 C 412.966 517.653, 397.969 514.964, 389.074 515.102 C 385.458 515.158, 378.764 515.830, 374.199 516.596 M 497.348 516.541 C 486.629 518.277, 479.175 521.357, 473.210 526.515 C 468.472 530.612, 463.711 538.961, 464.191 542.333 C 464.481 544.367, 465.165 544.531, 475.325 545 L 486.151 545.500 488.554 542.345 C 492.242 537.503, 496.942 535.145, 505.419 533.884 C 515.064 532.450, 525.754 533.936, 531.094 537.454 C 535.392 540.286, 538 545.330, 538 550.813 C 538 554.676, 537.861 554.846, 534.250 555.418 C 532.188 555.745, 521.950 556.460, 511.500 557.007 C 480.333 558.637, 467.802 563.530, 461.428 576.557 C 459.018 581.483, 458.796 582.852, 459.203 590.265 C 459.515 595.951, 460.301 599.752, 461.743 602.545 C 464.030 606.974, 471.124 613.992, 475.636 616.288 C 484.591 620.847, 505.865 622.489, 517.320 619.505 C 523.946 617.779, 530.280 614.747, 534.327 611.363 C 538.495 607.878, 540 608.280, 540 612.878 C 540 615.010, 540.627 617.275, 541.393 617.911 C 542.315 618.677, 546.626 618.972, 554.143 618.784 C 564.878 618.516, 565.480 618.391, 565.141 616.500 C 564.943 615.400, 564.450 598.525, 564.045 579 C 563.207 538.644, 563.019 537.574, 555.266 528.950 C 552.763 526.167, 548.534 522.784, 545.868 521.433 C 535.294 516.075, 513.682 513.896, 497.348 516.541 M 92.734 559.599 C 92.330 560.003, 92 568.844, 92 579.246 L 92 598.158 121.250 597.829 C 149.526 597.511, 150.651 597.423, 155.025 595.185 C 161.960 591.637, 164 587.922, 164 578.838 C 164 572.108, 163.689 570.871, 161.102 567.299 C 155.867 560.073, 153.483 559.586, 121.484 559.201 C 106.076 559.016, 93.138 559.195, 92.734 559.599 M 272 572.692 C 242.520 574.417, 236 577.383, 236 589.068 C 236 599.610, 250.911 605.541, 268.201 601.877 C 282.931 598.755, 290 590.348, 290 575.951 L 290 572 283.750 572.185 C 280.313 572.287, 275.025 572.515, 272 572.692 M 520.500 572.689 C 492.594 574.524, 485.522 577.260, 484.357 586.672 C 483.707 591.922, 486.577 596.863, 492.099 600 C 495.986 602.208, 497.667 602.499, 506.500 602.494 C 518.095 602.487, 524.905 600.485, 530.958 595.304 C 536.179 590.835, 538 586.515, 538 578.599 L 538 572 531.750 572.180 C 528.313 572.279, 523.250 572.508, 520.500 572.689" stroke="none" fill="#ffffff" fill-rule="evenodd" data-index="1" style="opacity: 1;"></path></svg>